<!DOCTYPE svg PUBLIC "-//W3C//DTD SVG 1.1//EN" "http://www.w3.org/Graphics/SVG/1.1/DTD/svg11.dtd">
<!-- Uploaded to: SVG Repo, www.svgrepo.com, Transformed by: SVG Repo Mixer Tools -->
<svg fill="#38571a" height="800px" width="800px" version="1.1" id="Capa_1" xmlns="http://www.w3.org/2000/svg" xmlns:xlink="http://www.w3.org/1999/xlink" viewBox="-36.74 -36.74 440.90 440.90" xml:space="preserve" stroke="#38571a">
<g id="SVGRepo_bgCarrier" stroke-width="0">
<rect x="-36.74" y="-36.74" width="440.90" height="440.90" rx="0" fill="#ffffff" strokewidth="0"/>
</g>
<g id="SVGRepo_tracerCarrier" stroke-linecap="round" stroke-linejoin="round"/>
<g id="SVGRepo_iconCarrier"> <g> <g> <path d="M309.584,275.433V7.5c0-4.143-3.357-7.5-7.5-7.5H91.893C73.117,0,57.84,16.878,57.84,37.624v268.031 c0,0.026,0.004,0.053,0.004,0.078c0.086,20.666,15.326,37.451,34.049,37.451h5.482v5.115c0,2.639,1.365,4.953,3.424,6.29 c0.025,0.018,18.498,11.677,18.498,11.677c1.223,0.771,2.613,1.157,4.002,1.157c1.391,0,2.779-0.386,4.002-1.157l18.248-11.514 c-0.002-0.002-0.006-0.004-0.008-0.006c2.201-1.308,3.68-3.701,3.68-6.447v-5.115h152.863c4.143,0,7.5-3.357,7.5-7.5 s-3.357-7.5-7.5-7.5c-10.504,0-19.051-10.149-19.051-22.625c0-12.477,8.547-22.627,19.051-22.627c0.119,0,0.234-0.011,0.352-0.016 c-0.002,0-0.002-0.002-0.002-0.002C306.412,282.732,309.584,279.457,309.584,275.433z M99.393,233.484l34.449,34.448H99.393 V233.484z M99.393,15h34.449L99.393,49.449V15z M84.393,16.829v252.035c-4.195,1.047-8.098,2.953-11.553,5.539V37.624 C72.84,28.31,77.605,20.294,84.393,16.829z M134.221,344.164l-10.922,6.892l-10.924-6.892V313.06h21.846V344.164z M274.895,328.185H149.221V305.56c0-4.143-3.357-7.5-7.5-7.5h-36.846c-4.143,0-7.5,3.357-7.5,7.5v22.625h-5.482 c-10.506,0-19.053-10.149-19.053-22.625c0-12.477,8.547-22.627,19.053-22.627h183.016c-4.311,6.302-6.875,14.137-6.875,22.627 C268.033,314.045,270.59,321.884,274.895,328.185z M294.584,267.933h-34.445l34.445-34.447V267.933z M294.584,212.271 l-55.658,55.661h-83.871L99.393,212.27V70.663L155.055,15h83.867l55.662,55.662V212.271z M294.584,49.448L260.137,15h34.447 V49.448z"/> <g> <path d="M229.188,217.443h-64.4c-2.138,0-4.174-0.912-5.597-2.507l-16.84-18.875c-1.226-1.374-1.903-3.151-1.903-4.993v-64.83 h-9.493c-4.143,0-7.5-3.357-7.5-7.5V83.35c0-4.143,3.357-7.5,7.5-7.5h55.778c4.143,0,7.5,3.357,7.5,7.5v35.389 c0,4.143-3.357,7.5-7.5,7.5h-5.431v42.512h31.371v-42.512h-5.431c-4.143,0-7.5-3.357-7.5-7.5V83.35c0-4.143,3.357-7.5,7.5-7.5 h55.778c4.143,0,7.5,3.357,7.5,7.5v35.389c0,4.143-3.357,7.5-7.5,7.5h-9.493v64.83c0,1.842-0.678,3.619-1.903,4.993 l-16.84,18.875C233.362,216.531,231.326,217.443,229.188,217.443z M168.147,202.443h57.682l12.699-14.234v-69.471 c0-4.143,3.357-7.5,7.5-7.5h9.493V90.85h-40.778v20.389h5.431c4.143,0,7.5,3.357,7.5,7.5v57.512c0,4.143-3.357,7.5-7.5,7.5 h-46.371c-4.143,0-7.5-3.357-7.5-7.5v-57.512c0-4.143,3.357-7.5,7.5-7.5h5.431V90.85h-40.778v20.389h9.493 c4.142,0,7.5,3.357,7.5,7.5v69.471L168.147,202.443z"/> </g> </g> </g> </g>
</svg>